<svg preserveAspectRatio="none" width="100%" height="100%" overflow="visible" style="display: block;" viewBox="0 0 40 40" fill="none" xmlns="http://www.w3.org/2000/svg">
<g id="edit">
<path id="Vector" d="M18.3333 6.66667H6.66667C5.78261 6.66667 4.93476 7.01786 4.30964 7.64298C3.68452 8.2681 3.33333 9.11594 3.33333 10V33.3333C3.33333 34.2174 3.68452 35.0652 4.30964 35.6904C4.93476 36.3155 5.78261 36.6667 6.66667 36.6667H30C30.8841 36.6667 31.7319 36.3155 32.357 35.6904C32.9821 35.0652 33.3333 34.2174 33.3333 33.3333V21.6667" stroke="#999999" stroke-width="2" stroke-linecap="round" stroke-linejoin="round"/>
<path id="Vector_2" d="M30.8333 4.16667C31.4964 3.50363 32.3956 3.13113 33.3333 3.13113C34.271 3.13113 35.1703 3.50363 35.8333 4.16667C36.4964 4.82971 36.8689 5.72898 36.8689 6.66667C36.8689 7.60435 36.4964 8.50362 35.8333 9.16667L20 25L13.3333 26.6667L15 20L30.8333 4.16667Z" stroke="#999999" stroke-width="2" stroke-linecap="round" stroke-linejoin="round"/>
</g>
</svg>
