<svg preserveAspectRatio="xMidYMid meet" width="100%" height="100%" overflow="visible" style="display: block;" viewBox="0 0 32.9987 32.9938" fill="none" xmlns="http://www.w3.org/2000/svg">
<path id="Vector" d="M0.31625 19.715C-0.159045 17.3225 -0.0979454 14.8543 0.49515 12.4882C1.08825 10.1221 2.19858 7.9169 3.74622 6.03142C5.29386 4.14595 7.2403 2.62707 9.44541 1.58414C11.6505 0.541216 14.0594 0.000184844 16.4987 0C16.8966 8.38353e-09 17.2781 0.158035 17.5594 0.43934C17.8407 0.720645 17.9988 1.10218 17.9988 1.5C17.9988 1.89782 17.8407 2.27936 17.5594 2.56066C17.2781 2.84196 16.8966 3 16.4987 3C13.8287 3 11.2186 3.79176 8.99855 5.27516C6.77849 6.75856 5.04816 8.86697 4.02638 11.3338C3.00459 13.8006 2.73725 16.515 3.25815 19.1337C3.77905 21.7525 5.0648 24.1579 6.95281 26.0459C8.84082 27.934 11.2463 29.2197 13.865 29.7406C16.4838 30.2615 19.1982 29.9942 21.665 28.9724C24.1318 27.9506 26.2402 26.2203 27.7236 24.0002C29.207 21.7801 29.9987 19.17 29.9987 16.5C29.9987 16.303 30.0375 16.108 30.1129 15.926C30.1883 15.744 30.2988 15.5786 30.4381 15.4393C30.5774 15.3001 30.7427 15.1896 30.9247 15.1142C31.1067 15.0388 31.3018 15 31.4987 15C31.6957 15 31.8908 15.0388 32.0728 15.1142C32.2548 15.1896 32.4201 15.3001 32.5594 15.4393C32.6987 15.5786 32.8092 15.744 32.8846 15.926C32.9599 16.108 32.9987 16.303 32.9987 16.5C32.9972 20.5953 31.4727 24.5437 28.7217 27.5775C25.9706 30.6113 22.1897 32.5135 18.1141 32.9145C14.0384 33.3154 9.95929 32.1863 6.66986 29.7468C3.38043 27.3072 1.11578 23.7315 0.31625 19.715Z" fill="white"/>
</svg>
