<svg width="110" height="110" viewBox="0 0 110 110" fill="none" xmlns="http://www.w3.org/2000/svg">
<path d="M0 48.5714C0 21.7462 21.7462 0 48.5714 0H61.4286C88.2538 0 110 21.7462 110 48.5714V61.4286C110 88.2538 88.2538 110 61.4286 110H14.2857C6.39593 110 0 103.604 0 95.7143V48.5714Z" fill="#7B68EE"/>
<path fill-rule="evenodd" clip-rule="evenodd" d="M33.1163 66.9032C34.2385 68.0254 34.2384 69.148 33.1163 70.2702L29.7389 73.6476C28.6168 74.7696 27.4947 74.7691 26.3726 73.6469C25.2506 72.5248 25.2507 71.4033 26.3726 70.2813L29.75 66.9039C30.8721 65.7819 31.9942 65.7812 33.1163 66.9032ZM43.2167 77.0036C44.3389 78.1258 44.3388 79.2485 43.2167 80.3706L39.8393 83.7481C38.7172 84.87 37.5951 84.8695 36.473 83.7474C35.351 82.6252 35.3504 81.5031 36.4723 80.381L39.8497 77.0036C40.9719 75.8816 42.0946 75.8815 43.2167 77.0036ZM78.4671 31.4491C78.6354 31.5969 78.7802 31.7666 78.9001 31.9525C80.1624 33.75 89.223 48.3512 68.0297 70.1321L67.509 82.1432C67.4859 82.6508 67.3012 83.1377 66.9815 83.5326C66.6616 83.9276 66.2234 84.2095 65.7316 84.3378L49.696 88.5031C49.2902 88.6188 48.8605 88.6244 48.4517 88.5196C48.0431 88.4149 47.6697 88.2036 47.3696 87.9071C47.3289 87.8666 47.2904 87.824 47.2529 87.7808C47.2133 87.7463 47.1721 87.7136 47.1348 87.6765C46.8106 87.3528 46.5866 86.9421 46.4899 86.4943C46.3931 86.0464 46.4283 85.58 46.59 85.1512L49.7368 76.7826L33.3407 60.3866L24.9984 63.5195C24.5697 63.6877 24.1015 63.7281 23.6505 63.6356C23.2067 63.5445 22.799 63.3276 22.4738 63.0127C22.3736 62.9403 22.2777 62.8615 22.1893 62.7738L22.2128 62.7503C21.9186 62.4569 21.7061 62.0918 21.5968 61.691C21.4876 61.29 21.4851 60.8669 21.5899 60.4646L25.7545 44.4284C25.8828 43.9366 26.1654 43.499 26.5604 43.1792C26.9553 42.8594 27.4421 42.6734 27.9497 42.6502L39.9747 42.1296C62.0756 20.6496 76.752 30.2221 78.2323 31.2668C78.2536 31.2814 78.2751 31.2957 78.2959 31.311C78.3122 31.3227 78.3255 31.3322 78.3352 31.3393C78.366 31.3627 78.3948 31.3884 78.4243 31.4132C78.4385 31.4252 78.4532 31.4367 78.4671 31.4491ZM75.1574 34.9839C73.2008 33.7487 61.4586 27.6759 42.9972 45.8301C42.9927 45.8344 42.9872 45.8376 42.9827 45.8419C42.9179 45.9331 42.8494 46.0221 42.772 46.1036C42.5522 46.3354 42.2881 46.5209 41.9952 46.6484C41.7023 46.7759 41.3865 46.8429 41.0671 46.8459L29.9095 47.3376L27.2309 57.612L33.0921 55.412C33.2643 55.3622 33.4406 55.3338 33.6169 55.3236C34.3422 55.1113 35.0669 55.3663 35.7921 56.0915L54.0305 74.3299C54.5981 74.8975 54.8783 75.465 54.8716 76.0327C54.8737 76.0631 54.8775 76.0934 54.8785 76.1239C54.8888 76.4363 54.8373 76.7476 54.7273 77.0402L52.539 82.8593L62.8093 80.1835L63.3175 69.0231C63.3156 68.7003 63.3798 68.38 63.5053 68.0826C63.6308 67.7855 63.8151 67.5169 64.0474 67.2933C64.1668 67.1784 64.2983 67.0768 64.4382 66.9895C82.3635 48.6895 76.3643 36.9044 75.1574 34.9839ZM67.083 43.0376C68.3889 44.3436 69.1221 46.1149 69.1221 47.9618C69.1221 49.8089 68.3883 51.5807 67.0823 52.8867C66.1084 53.8605 64.8672 54.5239 63.5164 54.7926C62.1657 55.0611 60.7657 54.9232 59.4933 54.3962C58.2208 53.8691 57.1325 52.9762 56.3673 51.8309C55.6022 50.6857 55.1941 49.3391 55.1941 47.9618C55.1941 46.5845 55.6021 45.238 56.3673 44.0928C57.1325 42.9475 58.2208 42.0545 59.4933 41.5274C60.7658 41.0004 62.1662 40.8631 63.5171 41.1317C64.8679 41.4005 66.1091 42.0637 67.083 43.0376ZM64.6205 45.5001C63.9675 44.847 63.0816 44.4795 62.1581 44.4795C61.2346 44.4795 60.3486 44.8471 59.6957 45.5001C59.2088 45.987 58.877 46.6077 58.7427 47.283C58.6085 47.9583 58.6774 48.6584 58.9409 49.2946C59.2044 49.9307 59.6508 50.4746 60.2232 50.8572C60.7958 51.2398 61.4694 51.4442 62.1581 51.4442C62.8468 51.4442 63.5203 51.2399 64.093 50.8572C64.6655 50.4746 65.1118 49.9308 65.3753 49.2946C65.6388 48.6584 65.7077 47.9584 65.5735 47.283C65.4391 46.6076 65.1074 45.987 64.6205 45.5001Z" fill="white"/>
</svg>
