<svg t="1789984839830" class="icon" viewBox="0 0 1024 1024" version="1.1" xmlns="http://www.w3.org/2000/svg" p-id="6037" width="200" height="200"><path d="M512 0.00002A602.495988 602.495988 0 0 0 85.077008 177.237017l72.319999 72.362998A499.96799 499.96799 0 0 1 512 102.827018 500.05299 500.05299 0 0 1 866.602993 249.600015l72.361999-72.362998A602.538988 602.538988 0 0 0 512 0.00002z m0 184.319996a418.644992 418.644992 0 0 0-296.404994 123.434998l72.319998 72.319999A316.329994 316.329994 0 0 1 512 287.147014c87.167998 0 166.612997 35.497999 224.084996 92.927999l72.319998-72.319999A418.729992 418.729992 0 0 0 512 184.320016zM182.230006 344.576013A416.255992 416.255992 0 0 0 92.202008 604.160008C92.160008 835.413004 280.747005 1024 512 1024c231.167995 0 419.839992-188.586996 419.839992-419.839992a420.522992 420.522992 0 0 0-90.069998-259.583995l-73.129999 73.129999a315.689994 315.689994 0 0 1 61.012999 186.496996c0 175.145997-142.505997 317.737994-317.695994 317.737994-175.145997 0-317.737994-142.548997-317.737994-317.737994 0-69.461999 22.656-134.015997 61.012999-186.453996l-73.002999-73.215999zM512 368.768013a237.269995 237.269995 0 0 0-166.655997 68.820998l72.319999 72.319999a133.546997 133.546997 0 0 1 188.671996 0l72.319999-72.319999A234.709995 234.709995 0 0 0 512 368.768013z m0 165.887997a69.503999 69.503999 0 1 0 0 139.007997 69.503999 69.503999 0 0 0 0-139.007997z" p-id="6038" fill="#333333"></path></svg>